<?xml version="1.0" standalone="no"?>
<!DOCTYPE svg PUBLIC "-//W3C//DTD SVG 20010904//EN"
 "http://www.w3.org/TR/2001/REC-SVG-20010904/DTD/svg10.dtd">
<svg version="1.0" xmlns="http://www.w3.org/2000/svg"
 width="730.000000pt" height="373.000000pt" viewBox="0 0 730.000000 373.000000"
 preserveAspectRatio="xMidYMid meet">

<g transform="translate(0.000000,373.000000) scale(0.100000,-0.100000)"
fill="#000000" stroke="none">
<path d="M2720 3340 l0 -40 110 0 110 0 0 -290 0 -290 50 0 50 0 0 290 0 290
115 0 115 0 0 40 0 40 -275 0 -275 0 0 -40z"/>
<path d="M3330 3050 l0 -330 240 0 240 0 0 40 0 40 -190 0 -190 0 0 110 0 110
180 0 180 0 0 40 0 40 -180 0 -180 0 0 100 0 100 190 0 190 0 0 40 0 40 -240
0 -240 0 0 -330z"/>
<path d="M4092 3328 c-11 -29 -68 -176 -126 -327 -58 -150 -106 -275 -106
-277 0 -2 22 -4 48 -4 l49 0 32 85 c30 80 34 85 69 95 20 5 75 21 122 34 47
14 88 22 91 18 4 -4 26 -58 49 -119 l43 -113 49 0 c26 0 48 3 48 8 0 4 -56
151 -124 327 l-124 320 -50 3 -50 3 -20 -53z m111 -185 c20 -60 37 -111 37
-114 0 -8 -179 -54 -184 -48 -5 6 97 269 103 269 3 0 23 -48 44 -107z"/>
<path d="M4510 3051 l0 -331 50 0 50 0 2 238 3 237 104 -237 104 -238 37 0 37
0 104 239 104 239 3 -239 2 -239 50 0 50 0 0 330 0 330 -49 0 -48 0 -123 -265
c-68 -146 -126 -265 -129 -265 -4 0 -61 118 -128 263 l-121 262 -51 3 -51 3 0
-330z"/>
<path d="M2105 3216 c-115 -51 -140 -202 -49 -288 123 -114 318 -8 291 158
-17 104 -146 173 -242 130z"/>
<path d="M1485 2756 c-9 -13 -27 -64 -40 -112 -46 -174 -215 -804 -305 -1139
-50 -187 -98 -364 -106 -393 l-15 -52 -485 0 -485 0 -24 -25 c-24 -23 -25 -30
-25 -150 0 -120 1 -127 25 -150 l24 -25 604 0 c561 0 606 1 626 17 17 15 66
183 246 857 124 461 225 840 225 842 0 2 120 4 266 4 270 0 293 3 321 39 8 11
12 59 13 142 0 186 44 169 -448 169 l-402 0 -15 -24z"/>
<path d="M2750 2060 l0 -330 50 0 49 0 3 132 3 131 170 48 c94 27 171 49 173
49 1 0 2 -81 2 -180 l0 -180 50 0 50 0 0 331 0 330 -47 -3 -48 -3 -3 -112 c-1
-62 -4 -113 -5 -113 -1 0 -77 -20 -169 -44 -92 -24 -169 -41 -172 -38 -3 3 -6
74 -6 159 l0 153 -50 0 -50 0 0 -330z"/>
<path d="M3493 2073 c-68 -175 -123 -324 -123 -331 0 -9 14 -12 47 -10 l47 3
29 75 c15 41 32 78 36 83 7 7 244 78 248 74 1 -2 22 -54 47 -117 l45 -115 50
-3 50 -3 -10 28 c-6 15 -63 163 -127 328 l-117 300 -50 3 -50 3 -122 -318z
m221 68 c20 -57 35 -105 34 -106 -7 -5 -181 -45 -184 -42 -2 2 17 57 41 123
25 65 48 125 51 133 8 23 19 2 58 -108z"/>
<path d="M4020 2061 l0 -331 230 0 230 0 0 40 0 40 -180 0 -180 0 -2 288 -3
287 -47 3 -48 3 0 -330z"/>
<path d="M4540 2060 l0 -330 50 0 50 0 0 150 0 150 181 0 180 0 -3 38 -3 37
-177 3 -178 2 0 100 0 100 185 0 185 0 0 40 0 40 -235 0 -235 0 0 -330z"/>
<path d="M2750 1070 l0 -330 233 2 232 3 3 38 3 37 -185 0 -186 0 0 290 0 290
-50 0 -50 0 0 -330z"/>
<path d="M3472 1348 c-11 -29 -68 -176 -126 -327 -58 -150 -106 -275 -106
-277 0 -2 22 -4 48 -4 l49 0 32 85 c30 80 34 85 69 95 20 5 75 21 122 34 47
14 88 22 91 18 4 -4 26 -58 49 -119 l43 -113 49 0 c26 0 48 3 48 8 0 4 -56
151 -124 327 l-124 320 -50 3 -50 3 -20 -53z m111 -185 c20 -60 37 -111 37
-114 0 -8 -179 -54 -184 -48 -5 6 97 269 103 269 3 0 23 -48 44 -107z"/>
<path d="M3890 1071 l0 -331 50 0 50 0 2 238 3 237 104 -237 104 -238 37 0 37
0 104 239 104 239 3 -239 2 -239 50 0 50 0 0 330 0 330 -49 0 -48 0 -123 -265
c-68 -146 -126 -265 -129 -265 -4 0 -61 118 -128 263 l-121 262 -51 3 -51 3 0
-330z"/>
<path d="M4680 1070 l0 -332 208 4 c188 3 211 5 247 25 22 11 48 29 57 40 45
49 61 143 34 206 -14 36 -69 87 -92 87 -22 0 -16 16 11 28 56 26 79 144 39
199 -47 62 -69 68 -296 72 l-208 3 0 -332z m392 246 c9 -4 22 -22 28 -40 13
-41 1 -79 -34 -102 -25 -16 -233 -73 -268 -74 -16 0 -18 12 -18 116 l0 116
138 -4 c75 -3 145 -8 154 -12z m-30 -258 c85 -25 122 -113 78 -185 -31 -51
-51 -57 -200 -57 l-135 -1 -3 97 -3 97 88 26 c48 14 93 28 98 30 19 7 38 5 77
-7z"/>
<path d="M5320 1070 l0 -333 158 6 c196 6 235 18 314 97 67 68 88 124 88 241
0 141 -58 243 -163 290 -46 20 -72 23 -224 27 l-173 4 0 -332z m350 228 c26
-14 57 -41 74 -66 26 -37 30 -53 34 -130 4 -75 1 -96 -18 -140 -26 -61 -82
-114 -139 -130 -21 -7 -75 -12 -120 -12 l-81 0 0 250 0 250 103 0 c87 0 110
-4 147 -22z"/>
<path d="M6162 1348 c-11 -29 -68 -176 -126 -327 -58 -150 -106 -275 -106
-277 0 -2 22 -4 48 -4 l49 0 32 85 c30 80 34 85 69 95 20 5 75 21 122 34 47
14 88 22 91 18 4 -4 26 -58 49 -119 l43 -113 49 0 c26 0 48 3 48 8 0 4 -56
151 -124 327 l-124 320 -50 3 -50 3 -20 -53z m111 -185 c20 -60 37 -111 37
-114 0 -8 -179 -54 -184 -48 -5 6 97 269 103 269 3 0 23 -48 44 -107z"/>
</g>
</svg>
